<svg xmlns="http://www.w3.org/2000/svg" xmlns:xlink="http://www.w3.org/1999/xlink" width="500" zoomAndPan="magnify" viewBox="0 0 375 374.999991" height="500" preserveAspectRatio="xMidYMid meet" version="1.0"><defs><g/><clipPath id="fb8658f91f"><path d="M 106 214 L 253.402344 214 L 253.402344 266 L 106 266 Z M 106 214 " clip-rule="nonzero"/></clipPath></defs><path fill="#3f5965" d="M 184.347656 278.796875 C 186.96875 278.015625 189.523438 277.121094 192.007812 276.121094 C 149.015625 284.628906 105.828125 259.152344 93.101562 216.300781 C 80.375 173.449219 102.660156 128.527344 143.328125 112.191406 C 140.699219 112.710938 138.070312 113.351562 135.449219 114.128906 C 89.980469 127.632812 64.066406 175.441406 77.566406 220.914062 C 91.070312 266.382812 138.878906 292.296875 184.347656 278.796875 " fill-opacity="1" fill-rule="nonzero"/><path fill="#289db9" d="M 77.933594 256.996094 C 80.214844 258.785156 82.554688 260.441406 84.941406 261.976562 C 51.222656 230.035156 46.753906 177.078125 75.984375 139.796875 C 105.21875 102.515625 157.710938 94.222656 196.773438 119.351562 C 194.710938 117.398438 192.550781 115.519531 190.269531 113.734375 C 150.707031 82.714844 93.492188 89.636719 62.46875 129.199219 C 31.449219 168.757812 38.375 225.976562 77.933594 256.996094 " fill-opacity="1" fill-rule="nonzero"/><g clip-path="url(#fb8658f91f)"><path fill="#289db9" d="M 162.582031 252.839844 C 139.121094 246.53125 119.824219 232.464844 106.703125 214.148438 C 117.046875 236.992188 137.15625 255.195312 163.265625 262.210938 C 197.367188 271.378906 232.183594 258.902344 253.136719 233.191406 C 228.773438 253.265625 195.390625 261.65625 162.582031 252.839844 " fill-opacity="1" fill-rule="nonzero"/></g><g fill="#3f5965" fill-opacity="1"><g transform="translate(96.214601, 204.650313)"><g><path d="M 21.09375 -9.984375 C 21.445312 -12.015625 20.445312 -13.570312 18.09375 -14.65625 L 13.140625 -16.625 C 7.390625 -19.1875 4.660156 -22.71875 4.953125 -27.21875 C 5.066406 -29.3125 5.75 -31.160156 7 -32.765625 C 8.25 -34.367188 10.003906 -35.628906 12.265625 -36.546875 C 14.523438 -37.460938 16.960938 -37.90625 19.578125 -37.875 C 23.179688 -37.800781 26.09375 -36.722656 28.3125 -34.640625 C 30.539062 -32.566406 31.640625 -29.785156 31.609375 -26.296875 L 24.125 -26.296875 C 24.207031 -27.992188 23.832031 -29.3125 23 -30.25 C 22.164062 -31.1875 20.878906 -31.675781 19.140625 -31.71875 C 17.429688 -31.75 15.941406 -31.359375 14.671875 -30.546875 C 13.410156 -29.734375 12.660156 -28.617188 12.421875 -27.203125 C 12.097656 -25.335938 13.347656 -23.859375 16.171875 -22.765625 L 19.546875 -21.46875 L 21.5 -20.578125 C 26.539062 -18.078125 28.898438 -14.570312 28.578125 -10.0625 C 28.429688 -7.851562 27.726562 -5.945312 26.46875 -4.34375 C 25.207031 -2.75 23.492188 -1.523438 21.328125 -0.671875 C 19.171875 0.179688 16.789062 0.582031 14.1875 0.53125 C 11.539062 0.488281 9.179688 -0.0625 7.109375 -1.125 C 5.035156 -2.1875 3.460938 -3.6875 2.390625 -5.625 C 1.378906 -7.414062 0.90625 -9.46875 0.96875 -11.78125 L 8.5 -11.75 C 8.257812 -7.695312 10.25 -5.632812 14.46875 -5.5625 C 16.300781 -5.5625 17.804688 -5.960938 18.984375 -6.765625 C 20.160156 -7.578125 20.863281 -8.648438 21.09375 -9.984375 Z M 21.09375 -9.984375 "/></g></g></g><g fill="#3f5965" fill-opacity="1"><g transform="translate(125.321925, 204.650313)"><g><path d="M 7.71875 0 L 0.4375 0 L 5.265625 -27.765625 L 12.546875 -27.765625 Z M 6.109375 -34.8125 C 6.078125 -35.957031 6.453125 -36.90625 7.234375 -37.65625 C 8.023438 -38.414062 8.972656 -38.796875 10.078125 -38.796875 C 11.171875 -38.828125 12.117188 -38.488281 12.921875 -37.78125 C 13.734375 -37.082031 14.15625 -36.179688 14.1875 -35.078125 C 14.21875 -34.015625 13.859375 -33.085938 13.109375 -32.296875 C 12.367188 -31.515625 11.40625 -31.109375 10.21875 -31.078125 C 9.132812 -31.035156 8.1875 -31.359375 7.375 -32.046875 C 6.5625 -32.734375 6.140625 -33.65625 6.109375 -34.8125 Z M 6.109375 -34.8125 "/></g></g></g><g fill="#3f5965" fill-opacity="1"><g transform="translate(136.627063, 204.650313)"><g><path d="M 11.625 -27.78125 L 11.03125 -24.625 C 13.269531 -27.125 15.984375 -28.34375 19.171875 -28.28125 C 20.878906 -28.238281 22.296875 -27.84375 23.421875 -27.09375 C 24.554688 -26.34375 25.316406 -25.328125 25.703125 -24.046875 C 28.148438 -26.929688 31.023438 -28.34375 34.328125 -28.28125 C 36.878906 -28.226562 38.800781 -27.351562 40.09375 -25.65625 C 41.382812 -23.96875 41.925781 -21.519531 41.71875 -18.3125 L 41.671875 -17.671875 L 38.71875 0 L 31.453125 0 L 34.40625 -17.734375 C 34.476562 -18.359375 34.503906 -18.945312 34.484375 -19.5 C 34.359375 -21.289062 33.332031 -22.210938 31.40625 -22.265625 C 29.414062 -22.265625 27.710938 -21.207031 26.296875 -19.09375 L 26.21875 -18.5 L 22.984375 0 L 15.75 0 L 18.703125 -17.671875 C 18.773438 -18.304688 18.800781 -18.898438 18.78125 -19.453125 C 18.664062 -21.265625 17.648438 -22.195312 15.734375 -22.25 C 13.898438 -22.300781 12.25 -21.4375 10.78125 -19.65625 L 7.3125 0 L 0.078125 0 L 4.875 -27.765625 Z M 11.625 -27.78125 "/></g></g></g><g fill="#3f5965" fill-opacity="1"><g transform="translate(178.534516, 204.650313)"><g><path d="M 26.734375 -13.796875 C 26.378906 -10.890625 25.617188 -8.304688 24.453125 -6.046875 C 23.285156 -3.796875 21.835938 -2.125 20.109375 -1.03125 C 18.390625 0.0625 16.476562 0.582031 14.375 0.53125 C 11.6875 0.46875 9.5625 -0.53125 8 -2.46875 L 5.46875 10.671875 L -1.765625 10.671875 L 4.875 -27.765625 L 11.546875 -27.78125 L 11.0625 -24.984375 C 13.0625 -27.242188 15.421875 -28.335938 18.140625 -28.265625 C 20.859375 -28.203125 22.96875 -27.21875 24.46875 -25.3125 C 25.976562 -23.40625 26.785156 -20.816406 26.890625 -17.546875 C 26.921875 -16.484375 26.867188 -15.234375 26.734375 -13.796875 Z M 19.546875 -14.34375 L 19.703125 -16.8125 C 19.734375 -18.46875 19.425781 -19.78125 18.78125 -20.75 C 18.144531 -21.726562 17.210938 -22.234375 15.984375 -22.265625 C 13.878906 -22.335938 12.144531 -21.453125 10.78125 -19.609375 L 8.703125 -8.15625 C 9.328125 -6.425781 10.6875 -5.53125 12.78125 -5.46875 C 14.519531 -5.414062 15.972656 -6.085938 17.140625 -7.484375 C 18.304688 -8.890625 19.109375 -11.175781 19.546875 -14.34375 Z M 19.546875 -14.34375 "/></g></g></g><g fill="#289db9" fill-opacity="1"><g transform="translate(207.486641, 204.749987)"><g><path d="M 7.71875 0 L 0.4375 0 L 7.28125 -39.40625 L 14.546875 -39.40625 Z M 7.71875 0 "/></g></g></g><g fill="#289db9" fill-opacity="1"><g transform="translate(218.791981, 204.749987)"><g><path d="M 7.71875 0 L 0.4375 0 L 5.265625 -27.765625 L 12.546875 -27.765625 Z M 6.109375 -34.8125 C 6.078125 -35.957031 6.453125 -36.90625 7.234375 -37.65625 C 8.023438 -38.414062 8.972656 -38.796875 10.078125 -38.796875 C 11.171875 -38.828125 12.117188 -38.488281 12.921875 -37.78125 C 13.734375 -37.082031 14.15625 -36.179688 14.1875 -35.078125 C 14.21875 -34.015625 13.859375 -33.085938 13.109375 -32.296875 C 12.367188 -31.515625 11.40625 -31.109375 10.21875 -31.078125 C 9.132812 -31.035156 8.1875 -31.359375 7.375 -32.046875 C 6.5625 -32.734375 6.140625 -33.65625 6.109375 -34.8125 Z M 6.109375 -34.8125 "/></g></g></g><g fill="#289db9" fill-opacity="1"><g transform="translate(230.097321, 204.749987)"><g><path d="M 2.03125 0 L 5.90625 -22.328125 L 1.90625 -22.328125 L 2.84375 -27.765625 L 6.84375 -27.78125 L 7.203125 -30.5625 C 7.648438 -33.519531 8.859375 -35.835938 10.828125 -37.515625 C 12.796875 -39.203125 15.300781 -40.03125 18.34375 -40 C 19.382812 -39.96875 20.691406 -39.789062 22.265625 -39.46875 L 21.625 -33.6875 C 20.800781 -33.894531 20.09375 -34 19.5 -34 C 18.21875 -34.007812 17.117188 -33.679688 16.203125 -33.015625 C 15.285156 -32.347656 14.71875 -31.347656 14.5 -30.015625 L 14.109375 -27.765625 L 19.46875 -27.765625 L 18.53125 -22.328125 L 13.1875 -22.328125 L 9.3125 0 Z M 2.03125 0 "/></g></g></g><g fill="#289db9" fill-opacity="1"><g transform="translate(246.148263, 204.749987)"><g><path d="M 11.859375 -10.578125 L 19.78125 -27.765625 L 27.84375 -27.765625 L 11.59375 4.1875 C 10.4375 6.625 9.070312 8.414062 7.5 9.5625 C 5.9375 10.71875 4.128906 11.296875 2.078125 11.296875 C 1.273438 11.296875 0.113281 11.113281 -1.40625 10.75 L -0.875 5.109375 L 0.125 5.15625 C 2.488281 5.226562 4.21875 4.363281 5.3125 2.5625 L 6.90625 -0.390625 L 2.359375 -27.765625 L 9.859375 -27.765625 Z M 11.859375 -10.578125 "/></g></g></g><g fill="#289db9" fill-opacity="1"><g transform="translate(132.271899, 227.745189)"><g><path d="M 0.078125 0 L 1.125 -4.953125 L 1.765625 -4.953125 L 1.828125 -4.265625 C 2.023438 -4.503906 2.242188 -4.691406 2.484375 -4.828125 C 2.722656 -4.972656 3.03125 -5.046875 3.40625 -5.046875 C 3.800781 -5.046875 4.097656 -4.960938 4.296875 -4.796875 C 4.503906 -4.640625 4.65625 -4.425781 4.75 -4.15625 C 5 -4.488281 5.265625 -4.71875 5.546875 -4.84375 C 5.835938 -4.976562 6.160156 -5.046875 6.515625 -5.046875 C 6.597656 -5.046875 6.710938 -5.035156 6.859375 -5.015625 C 7.015625 -4.992188 7.171875 -4.941406 7.328125 -4.859375 C 7.484375 -4.773438 7.613281 -4.644531 7.71875 -4.46875 C 7.820312 -4.289062 7.875 -4.039062 7.875 -3.71875 C 7.875 -3.519531 7.847656 -3.28125 7.796875 -3 L 7.15625 0 L 6.296875 0 L 6.90625 -2.890625 C 6.96875 -3.160156 7 -3.394531 7 -3.59375 C 7 -3.820312 6.941406 -4 6.828125 -4.125 C 6.722656 -4.25 6.53125 -4.3125 6.25 -4.3125 C 5.832031 -4.3125 5.484375 -4.164062 5.203125 -3.875 C 4.929688 -3.59375 4.738281 -3.203125 4.625 -2.703125 L 4.046875 0 L 3.1875 0 L 3.796875 -2.890625 C 3.859375 -3.148438 3.890625 -3.375 3.890625 -3.5625 C 3.890625 -3.8125 3.832031 -4 3.71875 -4.125 C 3.601562 -4.25 3.40625 -4.3125 3.125 -4.3125 C 2.757812 -4.3125 2.425781 -4.179688 2.125 -3.921875 C 1.832031 -3.660156 1.628906 -3.253906 1.515625 -2.703125 L 0.9375 0 Z M 0.078125 0 "/></g></g></g><g fill="#289db9" fill-opacity="1"><g transform="translate(140.728567, 227.745189)"><g><path d="M 1.546875 0.125 C 1.117188 0.125 0.757812 0.0078125 0.46875 -0.21875 C 0.1875 -0.457031 0.046875 -0.773438 0.046875 -1.171875 C 0.046875 -1.503906 0.132812 -1.78125 0.3125 -2 C 0.488281 -2.21875 0.71875 -2.394531 1 -2.53125 C 1.289062 -2.664062 1.597656 -2.765625 1.921875 -2.828125 C 2.253906 -2.898438 2.578125 -2.953125 2.890625 -2.984375 C 3.203125 -3.023438 3.472656 -3.054688 3.703125 -3.078125 C 3.722656 -3.171875 3.738281 -3.253906 3.75 -3.328125 C 3.757812 -3.410156 3.765625 -3.488281 3.765625 -3.5625 C 3.765625 -4.09375 3.457031 -4.359375 2.84375 -4.359375 C 2.539062 -4.359375 2.28125 -4.289062 2.0625 -4.15625 C 1.851562 -4.019531 1.691406 -3.832031 1.578125 -3.59375 L 0.828125 -3.8125 C 1.003906 -4.1875 1.257812 -4.484375 1.59375 -4.703125 C 1.925781 -4.929688 2.332031 -5.046875 2.8125 -5.046875 C 3.394531 -5.046875 3.84375 -4.925781 4.15625 -4.6875 C 4.46875 -4.457031 4.625 -4.097656 4.625 -3.609375 C 4.625 -3.492188 4.613281 -3.378906 4.59375 -3.265625 C 4.570312 -3.148438 4.539062 -2.988281 4.5 -2.78125 C 4.457031 -2.582031 4.394531 -2.28125 4.3125 -1.875 C 4.226562 -1.46875 4.171875 -1.109375 4.140625 -0.796875 C 4.109375 -0.492188 4.085938 -0.226562 4.078125 0 L 3.296875 0 L 3.25 -0.625 C 3.03125 -0.382812 2.785156 -0.195312 2.515625 -0.0625 C 2.253906 0.0625 1.929688 0.125 1.546875 0.125 Z M 1.8125 -0.5625 C 2.257812 -0.5625 2.644531 -0.710938 2.96875 -1.015625 C 3.289062 -1.328125 3.5 -1.734375 3.59375 -2.234375 L 3.625 -2.40625 C 3.070312 -2.351562 2.597656 -2.289062 2.203125 -2.21875 C 1.804688 -2.15625 1.503906 -2.050781 1.296875 -1.90625 C 1.085938 -1.757812 0.984375 -1.539062 0.984375 -1.25 C 0.984375 -1.019531 1.0625 -0.847656 1.21875 -0.734375 C 1.382812 -0.617188 1.582031 -0.5625 1.8125 -0.5625 Z M 1.8125 -0.5625 "/></g></g></g><g fill="#289db9" fill-opacity="1"><g transform="translate(145.93651, 227.745189)"><g><path d="M 0.0625 0 L 1.484375 -6.6875 L 2.34375 -6.6875 L 1.53125 -2.84375 L 3.875 -4.953125 L 5 -4.953125 L 2.65625 -2.890625 L 4.15625 0 L 3.203125 0 L 2.015625 -2.3125 L 1.28125 -1.65625 L 0.9375 0 Z M 0.0625 0 "/></g></g></g><g fill="#289db9" fill-opacity="1"><g transform="translate(150.804586, 227.745189)"><g><path d="M 2.375 0.125 C 1.726562 0.125 1.210938 -0.0625 0.828125 -0.4375 C 0.453125 -0.820312 0.265625 -1.335938 0.265625 -1.984375 C 0.265625 -2.566406 0.378906 -3.085938 0.609375 -3.546875 C 0.835938 -4.003906 1.164062 -4.367188 1.59375 -4.640625 C 2.019531 -4.910156 2.519531 -5.046875 3.09375 -5.046875 C 3.539062 -5.046875 3.910156 -4.953125 4.203125 -4.765625 C 4.492188 -4.585938 4.710938 -4.34375 4.859375 -4.03125 C 5.015625 -3.71875 5.09375 -3.375 5.09375 -3 C 5.09375 -2.757812 5.0625 -2.507812 5 -2.25 L 1.15625 -2.25 C 1.15625 -2.207031 1.15625 -2.160156 1.15625 -2.109375 C 1.15625 -2.066406 1.15625 -2.019531 1.15625 -1.96875 C 1.15625 -1.625 1.21875 -1.351562 1.34375 -1.15625 C 1.476562 -0.96875 1.644531 -0.832031 1.84375 -0.75 C 2.050781 -0.664062 2.265625 -0.625 2.484375 -0.625 C 2.765625 -0.625 3.003906 -0.664062 3.203125 -0.75 C 3.398438 -0.84375 3.566406 -0.960938 3.703125 -1.109375 L 4.484375 -0.875 C 4.265625 -0.582031 3.976562 -0.34375 3.625 -0.15625 C 3.269531 0.03125 2.851562 0.125 2.375 0.125 Z M 1.28125 -2.9375 L 4.203125 -2.9375 C 4.210938 -2.96875 4.21875 -2.992188 4.21875 -3.015625 C 4.21875 -3.046875 4.21875 -3.070312 4.21875 -3.09375 C 4.21875 -3.300781 4.175781 -3.492188 4.09375 -3.671875 C 4.007812 -3.859375 3.875 -4.007812 3.6875 -4.125 C 3.507812 -4.25 3.269531 -4.3125 2.96875 -4.3125 C 2.71875 -4.3125 2.476562 -4.257812 2.25 -4.15625 C 2.019531 -4.050781 1.816406 -3.894531 1.640625 -3.6875 C 1.460938 -3.476562 1.34375 -3.226562 1.28125 -2.9375 Z M 1.28125 -2.9375 "/></g></g></g><g fill="#289db9" fill-opacity="1"><g transform="translate(156.222448, 227.745189)"><g><path d="M 2.125 0.125 C 1.625 0.125 1.203125 0.03125 0.859375 -0.15625 C 0.523438 -0.351562 0.269531 -0.675781 0.09375 -1.125 L 0.953125 -1.421875 C 1.015625 -1.128906 1.164062 -0.910156 1.40625 -0.765625 C 1.644531 -0.628906 1.894531 -0.5625 2.15625 -0.5625 C 2.425781 -0.5625 2.675781 -0.628906 2.90625 -0.765625 C 3.132812 -0.910156 3.25 -1.113281 3.25 -1.375 C 3.25 -1.5625 3.179688 -1.703125 3.046875 -1.796875 C 2.910156 -1.898438 2.738281 -1.984375 2.53125 -2.046875 C 2.320312 -2.117188 2.097656 -2.1875 1.859375 -2.25 C 1.628906 -2.3125 1.410156 -2.394531 1.203125 -2.5 C 0.992188 -2.601562 0.820312 -2.742188 0.6875 -2.921875 C 0.550781 -3.109375 0.484375 -3.351562 0.484375 -3.65625 C 0.484375 -3.96875 0.578125 -4.222656 0.765625 -4.421875 C 0.953125 -4.628906 1.191406 -4.785156 1.484375 -4.890625 C 1.773438 -4.992188 2.082031 -5.046875 2.40625 -5.046875 C 2.675781 -5.046875 2.941406 -5.003906 3.203125 -4.921875 C 3.460938 -4.847656 3.691406 -4.734375 3.890625 -4.578125 C 4.085938 -4.429688 4.226562 -4.242188 4.3125 -4.015625 L 3.515625 -3.734375 C 3.441406 -3.941406 3.285156 -4.09375 3.046875 -4.1875 C 2.816406 -4.289062 2.578125 -4.34375 2.328125 -4.34375 C 2.078125 -4.34375 1.847656 -4.289062 1.640625 -4.1875 C 1.441406 -4.082031 1.34375 -3.921875 1.34375 -3.703125 C 1.34375 -3.523438 1.40625 -3.382812 1.53125 -3.28125 C 1.664062 -3.175781 1.835938 -3.085938 2.046875 -3.015625 C 2.265625 -2.953125 2.492188 -2.890625 2.734375 -2.828125 C 2.972656 -2.765625 3.195312 -2.675781 3.40625 -2.5625 C 3.625 -2.457031 3.796875 -2.316406 3.921875 -2.140625 C 4.054688 -1.960938 4.125 -1.726562 4.125 -1.4375 C 4.125 -1.09375 4.035156 -0.804688 3.859375 -0.578125 C 3.679688 -0.347656 3.441406 -0.171875 3.140625 -0.046875 C 2.835938 0.0664062 2.5 0.125 2.125 0.125 Z M 2.125 0.125 "/></g></g></g><g fill="#289db9" fill-opacity="1"><g transform="translate(161.010564, 227.745189)"><g/></g></g><g fill="#289db9" fill-opacity="1"><g transform="translate(163.809456, 227.745189)"><g><path d="M -0.625 1.609375 L -0.453125 0.859375 L -0.125 0.859375 C 0.15625 0.859375 0.363281 0.835938 0.5 0.796875 C 0.632812 0.753906 0.75 0.671875 0.84375 0.546875 C 0.9375 0.429688 1.039062 0.25 1.15625 0 L 0.4375 -4.953125 L 1.3125 -4.953125 L 1.71875 -1.09375 L 3.78125 -4.953125 L 4.78125 -4.953125 L 1.90625 0.203125 C 1.738281 0.515625 1.59375 0.757812 1.46875 0.9375 C 1.34375 1.125 1.210938 1.265625 1.078125 1.359375 C 0.941406 1.460938 0.773438 1.53125 0.578125 1.5625 C 0.378906 1.59375 0.125 1.609375 -0.1875 1.609375 Z M -0.625 1.609375 "/></g></g></g><g fill="#289db9" fill-opacity="1"><g transform="translate(168.157742, 227.745189)"><g><path d="M 2.296875 0.125 C 1.628906 0.125 1.125 -0.0703125 0.78125 -0.46875 C 0.4375 -0.863281 0.265625 -1.367188 0.265625 -1.984375 C 0.265625 -2.566406 0.378906 -3.085938 0.609375 -3.546875 C 0.847656 -4.003906 1.175781 -4.367188 1.59375 -4.640625 C 2.007812 -4.910156 2.488281 -5.046875 3.03125 -5.046875 C 3.375 -5.046875 3.695312 -4.96875 4 -4.8125 C 4.300781 -4.664062 4.546875 -4.441406 4.734375 -4.140625 C 4.921875 -3.835938 5.015625 -3.453125 5.015625 -2.984375 C 5.015625 -2.554688 4.945312 -2.15625 4.8125 -1.78125 C 4.6875 -1.414062 4.503906 -1.085938 4.265625 -0.796875 C 4.023438 -0.515625 3.738281 -0.289062 3.40625 -0.125 C 3.070312 0.0390625 2.703125 0.125 2.296875 0.125 Z M 2.375 -0.625 C 2.757812 -0.625 3.082031 -0.738281 3.34375 -0.96875 C 3.601562 -1.195312 3.796875 -1.492188 3.921875 -1.859375 C 4.054688 -2.222656 4.125 -2.609375 4.125 -3.015625 C 4.125 -3.492188 4.003906 -3.828125 3.765625 -4.015625 C 3.535156 -4.203125 3.25 -4.296875 2.90625 -4.296875 C 2.507812 -4.296875 2.179688 -4.179688 1.921875 -3.953125 C 1.660156 -3.734375 1.46875 -3.445312 1.34375 -3.09375 C 1.21875 -2.738281 1.15625 -2.367188 1.15625 -1.984375 C 1.15625 -1.578125 1.253906 -1.25 1.453125 -1 C 1.660156 -0.75 1.96875 -0.625 2.375 -0.625 Z M 2.375 -0.625 "/></g></g></g><g fill="#289db9" fill-opacity="1"><g transform="translate(173.62558, 227.745189)"><g><path d="M 1.734375 0.109375 C 1.242188 0.109375 0.898438 -0.0195312 0.703125 -0.28125 C 0.503906 -0.550781 0.40625 -0.882812 0.40625 -1.28125 C 0.40625 -1.519531 0.429688 -1.769531 0.484375 -2.03125 L 1.109375 -4.953125 L 1.96875 -4.953125 L 1.34375 -2.046875 C 1.320312 -1.929688 1.300781 -1.8125 1.28125 -1.6875 C 1.269531 -1.570312 1.265625 -1.46875 1.265625 -1.375 C 1.265625 -1.15625 1.316406 -0.972656 1.421875 -0.828125 C 1.535156 -0.691406 1.738281 -0.625 2.03125 -0.625 C 2.425781 -0.625 2.769531 -0.757812 3.0625 -1.03125 C 3.363281 -1.300781 3.582031 -1.742188 3.71875 -2.359375 L 4.28125 -4.953125 L 5.125 -4.953125 L 4.078125 0 L 3.4375 0 L 3.375 -0.703125 C 3.15625 -0.421875 2.921875 -0.210938 2.671875 -0.078125 C 2.421875 0.046875 2.109375 0.109375 1.734375 0.109375 Z M 1.734375 0.109375 "/></g></g></g><g fill="#289db9" fill-opacity="1"><g transform="translate(179.023448, 227.745189)"><g><path d="M 0.078125 0 L 1.125 -4.953125 L 1.765625 -4.953125 L 1.84375 -4.03125 C 2.050781 -4.320312 2.289062 -4.5625 2.5625 -4.75 C 2.84375 -4.945312 3.226562 -5.046875 3.71875 -5.046875 L 3.828125 -5.046875 L 3.640625 -4.15625 C 3.453125 -4.15625 3.28125 -4.144531 3.125 -4.125 C 2.613281 -4.039062 2.222656 -3.8125 1.953125 -3.4375 C 1.679688 -3.070312 1.488281 -2.609375 1.375 -2.046875 L 0.9375 0 Z M 0.078125 0 "/></g></g></g><g fill="#289db9" fill-opacity="1"><g transform="translate(182.552051, 227.745189)"><g/></g></g><g fill="#289db9" fill-opacity="1"><g transform="translate(185.350944, 227.745189)"><g><path d="M 1.59375 0 C 1.207031 0 0.941406 -0.0507812 0.796875 -0.15625 C 0.660156 -0.269531 0.59375 -0.441406 0.59375 -0.671875 C 0.59375 -0.816406 0.625 -1.039062 0.6875 -1.34375 L 1.3125 -4.28125 L 0.484375 -4.28125 L 0.625 -4.953125 L 1.453125 -4.953125 L 1.734375 -6.203125 L 2.59375 -6.203125 L 2.3125 -4.953125 L 3.265625 -4.953125 L 3.125 -4.28125 L 2.1875 -4.28125 L 1.59375 -1.59375 C 1.570312 -1.46875 1.550781 -1.359375 1.53125 -1.265625 C 1.519531 -1.171875 1.515625 -1.097656 1.515625 -1.046875 C 1.515625 -0.929688 1.539062 -0.851562 1.59375 -0.8125 C 1.65625 -0.769531 1.769531 -0.75 1.9375 -0.75 L 2.375 -0.75 L 2.21875 0 Z M 1.59375 0 "/></g></g></g><g fill="#289db9" fill-opacity="1"><g transform="translate(188.589667, 227.745189)"><g><path d="M 1.546875 0.125 C 1.117188 0.125 0.757812 0.0078125 0.46875 -0.21875 C 0.1875 -0.457031 0.046875 -0.773438 0.046875 -1.171875 C 0.046875 -1.503906 0.132812 -1.78125 0.3125 -2 C 0.488281 -2.21875 0.71875 -2.394531 1 -2.53125 C 1.289062 -2.664062 1.597656 -2.765625 1.921875 -2.828125 C 2.253906 -2.898438 2.578125 -2.953125 2.890625 -2.984375 C 3.203125 -3.023438 3.472656 -3.054688 3.703125 -3.078125 C 3.722656 -3.171875 3.738281 -3.253906 3.75 -3.328125 C 3.757812 -3.410156 3.765625 -3.488281 3.765625 -3.5625 C 3.765625 -4.09375 3.457031 -4.359375 2.84375 -4.359375 C 2.539062 -4.359375 2.28125 -4.289062 2.0625 -4.15625 C 1.851562 -4.019531 1.691406 -3.832031 1.578125 -3.59375 L 0.828125 -3.8125 C 1.003906 -4.1875 1.257812 -4.484375 1.59375 -4.703125 C 1.925781 -4.929688 2.332031 -5.046875 2.8125 -5.046875 C 3.394531 -5.046875 3.84375 -4.925781 4.15625 -4.6875 C 4.46875 -4.457031 4.625 -4.097656 4.625 -3.609375 C 4.625 -3.492188 4.613281 -3.378906 4.59375 -3.265625 C 4.570312 -3.148438 4.539062 -2.988281 4.5 -2.78125 C 4.457031 -2.582031 4.394531 -2.28125 4.3125 -1.875 C 4.226562 -1.46875 4.171875 -1.109375 4.140625 -0.796875 C 4.109375 -0.492188 4.085938 -0.226562 4.078125 0 L 3.296875 0 L 3.25 -0.625 C 3.03125 -0.382812 2.785156 -0.195312 2.515625 -0.0625 C 2.253906 0.0625 1.929688 0.125 1.546875 0.125 Z M 1.8125 -0.5625 C 2.257812 -0.5625 2.644531 -0.710938 2.96875 -1.015625 C 3.289062 -1.328125 3.5 -1.734375 3.59375 -2.234375 L 3.625 -2.40625 C 3.070312 -2.351562 2.597656 -2.289062 2.203125 -2.21875 C 1.804688 -2.15625 1.503906 -2.050781 1.296875 -1.90625 C 1.085938 -1.757812 0.984375 -1.539062 0.984375 -1.25 C 0.984375 -1.019531 1.0625 -0.847656 1.21875 -0.734375 C 1.382812 -0.617188 1.582031 -0.5625 1.8125 -0.5625 Z M 1.8125 -0.5625 "/></g></g></g><g fill="#289db9" fill-opacity="1"><g transform="translate(193.79761, 227.745189)"><g><path d="M 2.125 0.125 C 1.625 0.125 1.203125 0.03125 0.859375 -0.15625 C 0.523438 -0.351562 0.269531 -0.675781 0.09375 -1.125 L 0.953125 -1.421875 C 1.015625 -1.128906 1.164062 -0.910156 1.40625 -0.765625 C 1.644531 -0.628906 1.894531 -0.5625 2.15625 -0.5625 C 2.425781 -0.5625 2.675781 -0.628906 2.90625 -0.765625 C 3.132812 -0.910156 3.25 -1.113281 3.25 -1.375 C 3.25 -1.5625 3.179688 -1.703125 3.046875 -1.796875 C 2.910156 -1.898438 2.738281 -1.984375 2.53125 -2.046875 C 2.320312 -2.117188 2.097656 -2.1875 1.859375 -2.25 C 1.628906 -2.3125 1.410156 -2.394531 1.203125 -2.5 C 0.992188 -2.601562 0.820312 -2.742188 0.6875 -2.921875 C 0.550781 -3.109375 0.484375 -3.351562 0.484375 -3.65625 C 0.484375 -3.96875 0.578125 -4.222656 0.765625 -4.421875 C 0.953125 -4.628906 1.191406 -4.785156 1.484375 -4.890625 C 1.773438 -4.992188 2.082031 -5.046875 2.40625 -5.046875 C 2.675781 -5.046875 2.941406 -5.003906 3.203125 -4.921875 C 3.460938 -4.847656 3.691406 -4.734375 3.890625 -4.578125 C 4.085938 -4.429688 4.226562 -4.242188 4.3125 -4.015625 L 3.515625 -3.734375 C 3.441406 -3.941406 3.285156 -4.09375 3.046875 -4.1875 C 2.816406 -4.289062 2.578125 -4.34375 2.328125 -4.34375 C 2.078125 -4.34375 1.847656 -4.289062 1.640625 -4.1875 C 1.441406 -4.082031 1.34375 -3.921875 1.34375 -3.703125 C 1.34375 -3.523438 1.40625 -3.382812 1.53125 -3.28125 C 1.664062 -3.175781 1.835938 -3.085938 2.046875 -3.015625 C 2.265625 -2.953125 2.492188 -2.890625 2.734375 -2.828125 C 2.972656 -2.765625 3.195312 -2.675781 3.40625 -2.5625 C 3.625 -2.457031 3.796875 -2.316406 3.921875 -2.140625 C 4.054688 -1.960938 4.125 -1.726562 4.125 -1.4375 C 4.125 -1.09375 4.035156 -0.804688 3.859375 -0.578125 C 3.679688 -0.347656 3.441406 -0.171875 3.140625 -0.046875 C 2.835938 0.0664062 2.5 0.125 2.125 0.125 Z M 2.125 0.125 "/></g></g></g><g fill="#289db9" fill-opacity="1"><g transform="translate(198.585726, 227.745189)"><g><path d="M 0.0625 0 L 1.484375 -6.6875 L 2.34375 -6.6875 L 1.53125 -2.84375 L 3.875 -4.953125 L 5 -4.953125 L 2.65625 -2.890625 L 4.15625 0 L 3.203125 0 L 2.015625 -2.3125 L 1.28125 -1.65625 L 0.9375 0 Z M 0.0625 0 "/></g></g></g><g fill="#289db9" fill-opacity="1"><g transform="translate(203.453802, 227.745189)"><g/></g></g><g fill="#289db9" fill-opacity="1"><g transform="translate(206.252695, 227.745189)"><g><path d="M 2.125 0.125 C 1.625 0.125 1.203125 0.03125 0.859375 -0.15625 C 0.523438 -0.351562 0.269531 -0.675781 0.09375 -1.125 L 0.953125 -1.421875 C 1.015625 -1.128906 1.164062 -0.910156 1.40625 -0.765625 C 1.644531 -0.628906 1.894531 -0.5625 2.15625 -0.5625 C 2.425781 -0.5625 2.675781 -0.628906 2.90625 -0.765625 C 3.132812 -0.910156 3.25 -1.113281 3.25 -1.375 C 3.25 -1.5625 3.179688 -1.703125 3.046875 -1.796875 C 2.910156 -1.898438 2.738281 -1.984375 2.53125 -2.046875 C 2.320312 -2.117188 2.097656 -2.1875 1.859375 -2.25 C 1.628906 -2.3125 1.410156 -2.394531 1.203125 -2.5 C 0.992188 -2.601562 0.820312 -2.742188 0.6875 -2.921875 C 0.550781 -3.109375 0.484375 -3.351562 0.484375 -3.65625 C 0.484375 -3.96875 0.578125 -4.222656 0.765625 -4.421875 C 0.953125 -4.628906 1.191406 -4.785156 1.484375 -4.890625 C 1.773438 -4.992188 2.082031 -5.046875 2.40625 -5.046875 C 2.675781 -5.046875 2.941406 -5.003906 3.203125 -4.921875 C 3.460938 -4.847656 3.691406 -4.734375 3.890625 -4.578125 C 4.085938 -4.429688 4.226562 -4.242188 4.3125 -4.015625 L 3.515625 -3.734375 C 3.441406 -3.941406 3.285156 -4.09375 3.046875 -4.1875 C 2.816406 -4.289062 2.578125 -4.34375 2.328125 -4.34375 C 2.078125 -4.34375 1.847656 -4.289062 1.640625 -4.1875 C 1.441406 -4.082031 1.34375 -3.921875 1.34375 -3.703125 C 1.34375 -3.523438 1.40625 -3.382812 1.53125 -3.28125 C 1.664062 -3.175781 1.835938 -3.085938 2.046875 -3.015625 C 2.265625 -2.953125 2.492188 -2.890625 2.734375 -2.828125 C 2.972656 -2.765625 3.195312 -2.675781 3.40625 -2.5625 C 3.625 -2.457031 3.796875 -2.316406 3.921875 -2.140625 C 4.054688 -1.960938 4.125 -1.726562 4.125 -1.4375 C 4.125 -1.09375 4.035156 -0.804688 3.859375 -0.578125 C 3.679688 -0.347656 3.441406 -0.171875 3.140625 -0.046875 C 2.835938 0.0664062 2.5 0.125 2.125 0.125 Z M 2.125 0.125 "/></g></g></g><g fill="#289db9" fill-opacity="1"><g transform="translate(211.040811, 227.745189)"><g><path d="M 2.296875 -5.90625 C 2.128906 -5.90625 1.984375 -5.96875 1.859375 -6.09375 C 1.734375 -6.21875 1.671875 -6.363281 1.671875 -6.53125 C 1.671875 -6.707031 1.734375 -6.851562 1.859375 -6.96875 C 1.984375 -7.09375 2.128906 -7.15625 2.296875 -7.15625 C 2.460938 -7.15625 2.609375 -7.09375 2.734375 -6.96875 C 2.859375 -6.851562 2.921875 -6.707031 2.921875 -6.53125 C 2.921875 -6.363281 2.859375 -6.21875 2.734375 -6.09375 C 2.609375 -5.96875 2.460938 -5.90625 2.296875 -5.90625 Z M 0.453125 0 L 1.375 -4.28125 L 0.5625 -4.28125 L 0.703125 -4.953125 L 2.375 -4.953125 L 1.3125 0 Z M 0.453125 0 "/></g></g></g><g fill="#289db9" fill-opacity="1"><g transform="translate(213.739751, 227.745189)"><g><path d="M 0.078125 0 L 1.125 -4.953125 L 1.765625 -4.953125 L 1.828125 -4.265625 C 2.023438 -4.503906 2.242188 -4.691406 2.484375 -4.828125 C 2.722656 -4.972656 3.03125 -5.046875 3.40625 -5.046875 C 3.800781 -5.046875 4.097656 -4.960938 4.296875 -4.796875 C 4.503906 -4.640625 4.65625 -4.425781 4.75 -4.15625 C 5 -4.488281 5.265625 -4.71875 5.546875 -4.84375 C 5.835938 -4.976562 6.160156 -5.046875 6.515625 -5.046875 C 6.597656 -5.046875 6.710938 -5.035156 6.859375 -5.015625 C 7.015625 -4.992188 7.171875 -4.941406 7.328125 -4.859375 C 7.484375 -4.773438 7.613281 -4.644531 7.71875 -4.46875 C 7.820312 -4.289062 7.875 -4.039062 7.875 -3.71875 C 7.875 -3.519531 7.847656 -3.28125 7.796875 -3 L 7.15625 0 L 6.296875 0 L 6.90625 -2.890625 C 6.96875 -3.160156 7 -3.394531 7 -3.59375 C 7 -3.820312 6.941406 -4 6.828125 -4.125 C 6.722656 -4.25 6.53125 -4.3125 6.25 -4.3125 C 5.832031 -4.3125 5.484375 -4.164062 5.203125 -3.875 C 4.929688 -3.59375 4.738281 -3.203125 4.625 -2.703125 L 4.046875 0 L 3.1875 0 L 3.796875 -2.890625 C 3.859375 -3.148438 3.890625 -3.375 3.890625 -3.5625 C 3.890625 -3.8125 3.832031 -4 3.71875 -4.125 C 3.601562 -4.25 3.40625 -4.3125 3.125 -4.3125 C 2.757812 -4.3125 2.425781 -4.179688 2.125 -3.921875 C 1.832031 -3.660156 1.628906 -3.253906 1.515625 -2.703125 L 0.9375 0 Z M 0.078125 0 "/></g></g></g><g fill="#289db9" fill-opacity="1"><g transform="translate(222.196419, 227.745189)"><g><path d="M -0.265625 1.625 L 1.140625 -4.953125 L 1.765625 -4.953125 L 1.8125 -4.296875 C 1.945312 -4.492188 2.132812 -4.664062 2.375 -4.8125 C 2.625 -4.96875 2.9375 -5.046875 3.3125 -5.046875 C 3.71875 -5.046875 4.050781 -4.945312 4.3125 -4.75 C 4.570312 -4.5625 4.765625 -4.304688 4.890625 -3.984375 C 5.023438 -3.671875 5.09375 -3.320312 5.09375 -2.9375 C 5.09375 -2.582031 5.039062 -2.222656 4.9375 -1.859375 C 4.84375 -1.503906 4.695312 -1.175781 4.5 -0.875 C 4.300781 -0.582031 4.050781 -0.34375 3.75 -0.15625 C 3.445312 0.03125 3.09375 0.125 2.6875 0.125 C 2.289062 0.125 1.960938 0.03125 1.703125 -0.15625 C 1.441406 -0.34375 1.253906 -0.601562 1.140625 -0.9375 L 0.59375 1.625 Z M 2.59375 -0.59375 C 2.851562 -0.59375 3.082031 -0.660156 3.28125 -0.796875 C 3.476562 -0.941406 3.644531 -1.128906 3.78125 -1.359375 C 3.914062 -1.585938 4.019531 -1.84375 4.09375 -2.125 C 4.164062 -2.40625 4.203125 -2.6875 4.203125 -2.96875 C 4.203125 -3.382812 4.097656 -3.710938 3.890625 -3.953125 C 3.691406 -4.191406 3.414062 -4.3125 3.0625 -4.3125 C 2.71875 -4.3125 2.421875 -4.203125 2.171875 -3.984375 C 1.921875 -3.765625 1.726562 -3.484375 1.59375 -3.140625 C 1.457031 -2.796875 1.390625 -2.445312 1.390625 -2.09375 C 1.390625 -1.675781 1.492188 -1.320312 1.703125 -1.03125 C 1.921875 -0.738281 2.21875 -0.59375 2.59375 -0.59375 Z M 2.59375 -0.59375 "/></g></g></g><g fill="#289db9" fill-opacity="1"><g transform="translate(227.754231, 227.745189)"><g><path d="M 1.265625 0 C 0.878906 0 0.613281 -0.0507812 0.46875 -0.15625 C 0.332031 -0.269531 0.265625 -0.441406 0.265625 -0.671875 C 0.265625 -0.847656 0.289062 -1.039062 0.34375 -1.25 L 1.484375 -6.6875 L 2.34375 -6.6875 L 1.234375 -1.40625 C 1.210938 -1.332031 1.195312 -1.265625 1.1875 -1.203125 C 1.1875 -1.140625 1.1875 -1.085938 1.1875 -1.046875 C 1.1875 -0.941406 1.210938 -0.863281 1.265625 -0.8125 C 1.328125 -0.769531 1.441406 -0.75 1.609375 -0.75 L 1.984375 -0.75 L 1.8125 0 Z M 1.265625 0 "/></g></g></g><g fill="#289db9" fill-opacity="1"><g transform="translate(230.343204, 227.745189)"><g><path d="M 2.375 0.125 C 1.726562 0.125 1.210938 -0.0625 0.828125 -0.4375 C 0.453125 -0.820312 0.265625 -1.335938 0.265625 -1.984375 C 0.265625 -2.566406 0.378906 -3.085938 0.609375 -3.546875 C 0.835938 -4.003906 1.164062 -4.367188 1.59375 -4.640625 C 2.019531 -4.910156 2.519531 -5.046875 3.09375 -5.046875 C 3.539062 -5.046875 3.910156 -4.953125 4.203125 -4.765625 C 4.492188 -4.585938 4.710938 -4.34375 4.859375 -4.03125 C 5.015625 -3.71875 5.09375 -3.375 5.09375 -3 C 5.09375 -2.757812 5.0625 -2.507812 5 -2.25 L 1.15625 -2.25 C 1.15625 -2.207031 1.15625 -2.160156 1.15625 -2.109375 C 1.15625 -2.066406 1.15625 -2.019531 1.15625 -1.96875 C 1.15625 -1.625 1.21875 -1.351562 1.34375 -1.15625 C 1.476562 -0.96875 1.644531 -0.832031 1.84375 -0.75 C 2.050781 -0.664062 2.265625 -0.625 2.484375 -0.625 C 2.765625 -0.625 3.003906 -0.664062 3.203125 -0.75 C 3.398438 -0.84375 3.566406 -0.960938 3.703125 -1.109375 L 4.484375 -0.875 C 4.265625 -0.582031 3.976562 -0.34375 3.625 -0.15625 C 3.269531 0.03125 2.851562 0.125 2.375 0.125 Z M 1.28125 -2.9375 L 4.203125 -2.9375 C 4.210938 -2.96875 4.21875 -2.992188 4.21875 -3.015625 C 4.21875 -3.046875 4.21875 -3.070312 4.21875 -3.09375 C 4.21875 -3.300781 4.175781 -3.492188 4.09375 -3.671875 C 4.007812 -3.859375 3.875 -4.007812 3.6875 -4.125 C 3.507812 -4.25 3.269531 -4.3125 2.96875 -4.3125 C 2.71875 -4.3125 2.476562 -4.257812 2.25 -4.15625 C 2.019531 -4.050781 1.816406 -3.894531 1.640625 -3.6875 C 1.460938 -3.476562 1.34375 -3.226562 1.28125 -2.9375 Z M 1.28125 -2.9375 "/></g></g></g></svg>